<?xml version="1.0" encoding="UTF-8" standalone="no"?>
<!DOCTYPE svg PUBLIC "-//W3C//DTD SVG 1.1//EN" "http://www.w3.org/Graphics/SVG/1.1/DTD/svg11.dtd"><svg width="100%" height="100%" viewBox="0 0 64 64" version="1.1" xmlns="http://www.w3.org/2000/svg" xmlns:xlink="http://www.w3.org/1999/xlink" xml:space="preserve" xmlns:serif="http://www.serif.com/" style="fill-rule:evenodd;clip-rule:evenodd;stroke-linecap:round;stroke-linejoin:round;stroke-miterlimit:1.5;">

<path d="M38.199,50.397c2.991,0 5.419,2.428 5.419,5.419c0,2.991 -2.428,5.419 -5.419,5.419c-2.991,0 -5.419,-2.428 -5.419,-5.419c0,-2.991 2.428,-5.419 5.419,-5.419Zm-22.764,-12.542c5.742,0 10.404,4.662 10.404,10.405c0,5.742 -4.662,10.404 -10.404,10.404c-5.743,0 -10.405,-4.662 -10.405,-10.404c0,-5.743 4.662,-10.405 10.405,-10.405Zm15.333,-13.551l11.167,4.967c-0,0 -0.59,-0.238 -3.304,-1.433c-1.684,-0.742 -4.188,-1.852 -7.877,-3.504l-4.829,9.726c2.383,3.587 4.309,6.686 5.794,9.175c2.58,4.328 3.828,6.813 3.828,6.813l-9.85,-15.529l-2.745,5.53c0.977,-2.029 1.876,-3.89 2.703,-5.596l-5.76,-9.081c2.244,3.101 4.237,5.991 5.985,8.62c1.985,-4.09 3.547,-7.261 4.766,-9.706c-2.229,-0.998 -4.888,-2.192 -8.056,-3.619l8.071,3.589c0.634,-1.273 1.175,-2.349 1.634,-3.253c1.736,-3.421 2.297,-4.4 2.297,-4.4l-3.824,7.701Zm21.203,-1.72c5.743,0 10.405,4.662 10.405,10.405c-0,5.742 -4.662,10.404 -10.405,10.404c-5.742,0 -10.404,-4.662 -10.404,-10.404c-0,-5.743 4.662,-10.405 10.404,-10.405Zm-39.982,-15.234c5.742,-0 10.405,4.662 10.405,10.404c-0,5.743 -4.663,10.405 -10.405,10.405c-5.742,-0 -10.405,-4.662 -10.405,-10.405c0,-5.742 4.663,-10.404 10.405,-10.404Zm24.432,-4.171c3.542,-0 6.419,2.876 6.419,6.419c-0,3.542 -2.877,6.418 -6.419,6.418c-3.543,0 -6.419,-2.876 -6.419,-6.418c-0,-3.543 2.876,-6.419 6.419,-6.419Z" style="fill:#f20d5e;stroke:#000;stroke-width:3px;"/>
</svg>
